<?xml version="1.0" standalone="no"?>
<!DOCTYPE svg PUBLIC "-//W3C//DTD SVG 1.1//EN" "http://www.w3.org/Graphics/SVG/1.1/DTD/svg11.dtd" >
<svg xmlns="http://www.w3.org/2000/svg">
<metadata>
Created by FontForge 20120731 at Thu Dec 22 10:59:54 2016
 By admin
</metadata>
<defs>
<font id="iconfont" horiz-adv-x="1024" >
  <font-face 
    font-family="iconfont"
    font-weight="500"
    font-stretch="normal"
    units-per-em="1024"
    panose-1="2 0 6 3 0 0 0 0 0 0"
    ascent="896"
    descent="-128"
    x-height="792"
    bbox="0 -212 1054 896.077"
    underline-thickness="0"
    underline-position="0"
    unicode-range="U+0078-E716"
  />
<missing-glyph 
 />
    <glyph glyph-name=".notdef" 
 />
    <glyph glyph-name=".notdef" 
 />
    <glyph glyph-name=".null" horiz-adv-x="0" 
 />
    <glyph glyph-name="nonmarkingreturn" horiz-adv-x="341" 
 />
    <glyph glyph-name="x" unicode="x" horiz-adv-x="1001" 
d="M281 543q-27 -1 -53 -1h-83q-18 0 -36.5 -6t-32.5 -18.5t-23 -32t-9 -45.5v-76h912v41q0 16 -0.5 30t-0.5 18q0 13 -5 29t-17 29.5t-31.5 22.5t-49.5 9h-133v-97h-438v97zM955 310v-52q0 -23 0.5 -52t0.5 -58t-10.5 -47.5t-26 -30t-33 -16t-31.5 -4.5q-14 -1 -29.5 -0.5
t-29.5 0.5h-32l-45 128h-439l-44 -128h-29h-34q-20 0 -45 1q-25 0 -41 9.5t-25.5 23t-13.5 29.5t-4 30v167h911zM163 247q-12 0 -21 -8.5t-9 -21.5t9 -21.5t21 -8.5q13 0 22 8.5t9 21.5t-9 21.5t-22 8.5zM316 123q-8 -26 -14 -48q-5 -19 -10.5 -37t-7.5 -25t-3 -15t1 -14.5
t9.5 -10.5t21.5 -4h37h67h81h80h64h36q23 0 34 12t2 38q-5 13 -9.5 30.5t-9.5 34.5q-5 19 -11 39h-368zM336 498v228q0 11 2.5 23t10 21.5t20.5 15.5t34 6h188q31 0 51.5 -14.5t20.5 -52.5v-227h-327z" />
    <glyph glyph-name="circularemail1" unicode="&#xe694;" 
d="M512 780q-98 0 -186.5 -38t-153 -102.5t-102.5 -153t-38 -186.5t38 -186.5t102.5 -153t153 -102.5t186.5 -38t186.5 38t153 102.5t102.5 153t38 186.5t-38 186.5t-102.5 153t-153 102.5t-186.5 38zM830 529l-318 -268l-318 268h636zM192 506l212 -180l-212 -253v433z
M217 72l202 240l93 -77l94 79l202 -242h-591zM832 73l-212 253l212 180v-433z" />
    <glyph glyph-name="sousuo" unicode="&#xe659;" 
d="M480 748q-98 0 -186.5 -38t-153 -102.5t-102.5 -153t-38 -186.5t38 -186.5t102.5 -153t153 -102.5t186.5 -38t186.5 38t153 102.5t102.5 153t38 186.5t-38 186.5t-102.5 153t-153 102.5t-186.5 38zM480 -148q-172 0 -294 122t-122 294t122 294t294 122t294 -122t122 -294
t-122 -294t-294 -122zM603 189q36 50 36 112q0 79 -56 135.5t-135.5 56.5t-136 -56.5t-56.5 -136t56.5 -135.5t135.5 -56q61 0 111 35l90 -91q10 -9 23 -9t22.5 9.5t9.5 22.5t-9 23zM447 173q-53 0 -90.5 37.5t-37.5 90.5t37.5 90.5t90.5 37.5t90.5 -37.5t37.5 -90.5
t-37.5 -90.5t-90.5 -37.5z" />
    <glyph glyph-name="icon03" unicode="&#xe605;" 
d="M449.5 446.5q-12.5 -7.5 -20.5 -18.5t-8 -27q0 -14 5.5 -22.5t19 -16t35.5 -13.5q4 -2 9 -3v114l-12 -2q-16 -4 -28.5 -11.5zM588.5 255q-12.5 9 -34.5 17l-21 7v-134q28 4 49 18q29 19 29 49q0 13 -5 23.5t-17.5 19.5zM638 630l108 187h-469l111 -186
q-113 -37 -184 -131t-71 -212q0 -99 50.5 -182.5t138 -132t190 -48.5t190 48.5t138 132t50.5 182.5q0 117 -70.5 210.5t-181.5 131.5zM661.5 164q-14.5 -23 -39 -39t-53.5 -25q-18 -5 -36 -7v-28q0 -9 -6 -15.5t-15.5 -6.5t-15.5 6.5t-6 15.5v27q-26 1 -47 8
q-31 8 -51.5 20.5t-32.5 25t-12 20.5q0 10 5.5 21.5t18.5 10.5q9 0 18.5 -9t24.5 -19t38 -18q16 -6 38 -8v146q-32 8 -56 16q-26 9 -43 21.5t-25 29.5t-8 43t12 46.5t33 35t49 22.5q18 5 38 7v23q0 9 6 15.5t15.5 6.5t15.5 -6.5t6 -15.5v-23q21 -1 39 -6q27 -6 47 -16
t31 -21t11 -21q0 -13 -6 -23.5t-20 -10.5q-6 0 -12 4t-17 13q-19 13 -39 22q-13 6 -34 8v-126h3q29 -8 55 -17t44.5 -22t29.5 -32t11 -47.5t-14.5 -51.5z" />
    <glyph glyph-name="fail" unicode="&#xe613;" 
d="M512 724q-89 0 -169.5 -35t-139 -93t-93 -139t-34.5 -169.5t34.5 -169.5t93 -139.5t139 -93t169.5 -34.5t169.5 34.5t139 93t93 139.5t34.5 169.5t-34.5 169.5t-93 139t-139 93t-169.5 35v0zM685 157q9 -9 9 -21.5t-9 -21.5t-21.5 -9t-21.5 9l-130 130l-130 -130
q-8 -9 -21 -9t-22 9t-9 21.5t9 21.5l130 130l-130 130q-9 9 -9 21.5t9 21.5t22 9t21 -9l130 -130l130 130q9 9 21.5 9t21.5 -9t9 -21.5t-9 -21.5l-130 -130zM685 157z" />
    <glyph glyph-name="xiangji" unicode="&#xe6ed;" 
d="M521 425q-71 0 -122 -51t-51 -123t51 -123t122.5 -51t122.5 51t51 123t-51 123t-123 51v0zM891 574h-163l-64 83q-6 7 -15 7h-265q-9 0 -15 -8l-60 -82h-176q-28 0 -48 -20t-20 -48v-504q0 -28 20 -48t48 -20h758q28 0 48 20t20 48v504q0 28 -20 48t-48 20v0zM521 40
q-87 0 -149 62t-62 149t62 149t149.5 62t149 -62t61.5 -149t-61.5 -149t-149.5 -62v0zM811 416q-12 0 -20 8t-8 19t8 19t19.5 8t19.5 -8t8 -19t-8 -19t-19 -8v0zM811 416z" />
    <glyph glyph-name="xuanze" unicode="&#xe609;" 
d="M512 812q-104 0 -199 -40.5t-163.5 -109t-109 -163.5t-40.5 -199t40.5 -199t109 -163.5t163.5 -109t199 -40.5t199 40.5t163.5 109t109 163.5t40.5 199t-40.5 199t-109 163.5t-163.5 109t-199 40.5zM781 419l-323 -322q-6 -6 -14 -6t-14 6l-42 42l-140 140q-6 6 -6 14
t6 14l42 42q6 6 14 6t14 -6l126 -126l266 267q6 5 14.5 5t14.5 -5l42 -43q6 -5 6 -13.5t-6 -14.5zM738 442z" />
    <glyph glyph-name="cuowu" unicode="&#xe660;" 
d="M699 299l312 312q10 10 10 24t-10 23l-142 141q-9 10 -23 10t-24 -10l-311 -312l-309 307q-10 10 -24 10t-24 -10l-141 -141q-10 -9 -10 -23t10 -24l309 -307l-309 -310q-10 -10 -10 -23.5t10 -23.5l141 -141q10 -10 24 -10t24 10l309 310l311 -310q10 -10 24 -10t23 10
l142 141q10 10 10 23.5t-10 23.5z" />
    <glyph glyph-name="configuration-theme" unicode="&#xe66d;" 
d="M925 -18q-3 2 -7 4q-15 6 -25 19t-10 31t11.5 32.5t28.5 20.5q4 1 8 6t3 14q-3 15 -9 30t-13 22q-5 4 -11 5t-10 -2q-15 -7 -33.5 -6t-31 13.5t-15 29.5t4.5 32q1 2 2 7t-2 9q-4 7 -11 12.5t-15.5 9.5t-17 6t-15.5 2q-5 0 -9.5 -4.5t-6.5 -8.5q-6 -16 -20 -26t-32 -10
t-31 10.5t-19 24.5q-1 5 -5 9.5t-11 4.5q-5 0 -14 -2t-18.5 -5.5t-17.5 -9t-11 -12.5q-2 -4 -1 -8t2 -7q1 -4 1 -11q1 -7 0 -16q0 -8 -3 -18q-3 -9 -9 -15q-13 -13 -30 -15t-33 4q-5 2 -9 2.5t-8 -2.5q-5 -3 -9.5 -9.5t-7.5 -14.5q-4 -8 -6 -16.5t-2 -14.5q0 -7 3.5 -13
t7.5 -7q16 -6 28.5 -20t12.5 -32t-12.5 -32t-28.5 -21q-9 -3 -10 -14q-1 -6 1 -16t6 -19t9 -17q5 -7 10 -9q8 -3 15 -1q12 3 22 4t20.5 -1.5t17.5 -10.5q12 -13 13.5 -28.5t-4.5 -27.5q-4 -9 -4 -14t3 -8q4 -6 11 -11t16 -9t18 -6.5t17 -2.5q6 0 11.5 3t7.5 9
q6 16 20.5 27.5t31.5 11.5q19 0 32.5 -11.5t19.5 -28.5h1q1 -4 5.5 -7.5t8.5 -3.5q7 0 16 2t17 6t15 8t10 9q6 10 1 20q-7 16 -5 32.5t15 29.5q6 6 14 8.5t16 3.5t16 0q8 -2 13 -3q6 -2 10.5 -2t11 3t11.5 10.5t8.5 16.5t5.5 17.5t0 15.5t-7 12zM795 -7.5
q-9 -20.5 -24.5 -36t-36.5 -24.5t-44.5 -9t-44 9t-35.5 24q-16 16 -24.5 36.5t-8.5 44t8.5 44t24 36t36 24.5t44 9t44.5 -9t36.5 -24.5t24.5 -36t9 -44t-9 -44zM448 25q1 2 2 3v2q1 2 1 4v1q1 2 1 4q0 3 -1 4v0q-1 5 -2 8v0v0.5v0.5q-1 2 -2 3l-4 8l-3.5 5.5t-4.5 8.5
q-13 22 -14 40q0 24 13 42q23 33 68 40q8 1 15 -2q3 2 6 3l1 1v0l2 2q2 4 3 4v1v0q2 5 3 10v2v5l2 14q0 9 1 17q5 24 27 37v0q5 9 14 10q11 2 18 3q2 0 4 1q27 9 46 -12q5 -5 10 -13q7 -5 16 -12q2 -2 4 -3q1 0 3 -1t4 -1l3 -1h3h3h3q1 1 2 1l1 1q4 2 7 4l2 2l0.5 0.5
t1.5 0.5q4 4 7 6q15 15 30 21q23 10 43 7q9 -2 18 -7v198l-283 256h-336q-36 0 -62 -23.5t-26 -56.5v-672q0 -33 26 -56.5t62 -23.5h235q-6 20 -6 37q0 30 13 46q5 8 14 15q4 3 6 5v0zM465.5 698q13.5 0 23 -10t9.5 -23.5t-9.5 -23t-23 -9.5t-23.5 9.5t-10 23t10 23.5
t23.5 10zM191.5 632q-13.5 0 -23.5 9.5t-10 23t10 23.5t23.5 10t23 -10t9.5 -23.5t-9.5 -23t-23 -9.5zM328.5 632q-13.5 0 -23.5 9.5t-10 23t10 23.5t23.5 10t23 -10t9.5 -23.5t-9.5 -23t-23 -9.5z" />
    <glyph glyph-name="phone" unicode="&#xe603;" 
d="M512 893q-104 0 -198 -40.5t-162 -108.5t-108.5 -162t-40.5 -198t40.5 -198t108.5 -162t162 -108.5t198 -40.5t198 40.5t162 108.5t108.5 162t40.5 198t-40.5 198t-108.5 162t-162 108.5t-198 40.5zM593 569v0l123 123q7 7 17 7t17 -7l43 -44l-157 -156l-43 43v0
q-7 8 -7 17.5t7 16.5zM204 147v0q-7 8 -7 17.5t7 16.5v1q120 118 120 119q7 7 17 6.5t17 -7.5l43 -43l-153 -153l-2.5 2.5t-6.5 6t-8.5 8.5t-9 9.5l-8.5 8.5t-6.5 6zM661 250q-64 -66 -126.5 -108t-106.5 -56.5t-81.5 -15.5t-57.5 6t-29 17l153 152q7 -7 16.5 -8.5t22.5 5.5
t26.5 16.5t35.5 27.5q63 51 110 110q11 13 17.5 23t12 21.5t4 21.5t-9.5 18l157 156q9 -10 15.5 -29t6 -55t-13.5 -77.5t-51.5 -101.5t-100.5 -123z" />
    <glyph glyph-name="anquan" unicode="&#xe682;" 
d="M922 752q-19 17 -45 17h-5h-28q-74 0 -132 14q-30 7 -64 28t-65.5 46.5t-34.5 27.5q-17 11 -37.5 11t-36.5 -11l-5.5 -5t-14 -12.5t-20 -17.5t-26 -20t-29.5 -19.5t-32.5 -17t-33.5 -10.5q-58 -14 -133 -14h-28h-5q-26 0 -45 -17q-21 -19 -21 -47v-160q0 -95 14 -179
t36.5 -145t54.5 -113t63.5 -86.5t68.5 -62t65 -42.5t56.5 -26t40 -14t19.5 -4q7 -1 11 -1q7 0 12 1q8 1 19.5 4t40.5 14t57 26t65.5 42.5t69 62t64 86.5t55 113t36.5 145t14 179v160q0 28 -21 47v0zM774 523l-278 -269q-3 -5 -7 -8q-12 -12 -29 -12q-18 0 -30 12q-3 3 -6 8
l-149 144q-12 11 -12 27.5t12 28t29 11.5t28 -12l128 -123l257 248q11 12 28 12t29 -11.5t12 -28t-12 -27.5v0zM774 523z" />
    <glyph glyph-name="liubianxing" unicode="&#xe600;" 
d="M953 128v512l-443 256l-444 -256v-512l444 -256z" />
    <glyph glyph-name="liubianxing4" unicode="&#xe607;" 
d="M510 881l430 -248v-498l-430 -248l-431 248v498zM510 896l-444 -256v-512l444 -256l443 256v512l-443 256v0z" />
    <glyph glyph-name="heilongjiangtubiao11" unicode="&#xe65f;" 
d="M219 -1q-10 0 -17.5 7.5t-7.5 17.5v69q0 103 55 187t146 122l14 6l-12 10q-34 28 -53 68.5t-19 85.5q0 82 55 139.5t132.5 57.5t132 -57.5t54.5 -139.5q0 -45 -18.5 -85.5t-52.5 -68.5l-12 -10l14 -6q91 -38 145.5 -122t54.5 -187v-69q0 -10 -7 -17.5t-17 -7.5h-587v0v0z
M88 102q-10 0 -17 7.5t-7 17.5v53q0 75 36.5 138t99.5 97l10 6l-8 8q-40 47 -40 109q0 64 43 111.5t104 50.5q-10 -15 -14 -35q-51 -7 -78.5 -43t-27.5 -86q0 -44 12 -65t40 -37q10 -8 11 -18q0 -10 -8 -13l-10 -4q-66 -17 -104.5 -79.5t-38.5 -138.5v-49l52 1
q-3 -17 -5 -31h-50v0v0zM886 102q-2 19 -5 28h52v50q-2 82 -40 144t-106 78l-6 2q-5 3 -6 12q0 7 3 9.5t12 6.5q26 28 36 50.5t10 55.5q-8 63 -31 88t-72 40q-2 5 -2.5 7t-1.5 5.5t-1.5 4t-2 3t-2 3.5t-3.5 5t-5 6q61 -3 104 -50.5t43 -111.5q0 -62 -40 -109l-8 -8l10 -6
q63 -34 99.5 -97t36.5 -138v-53q0 -10 -7 -17.5t-17 -7.5h-50v0v0zM886 102z" />
    <glyph glyph-name="meitiyunjiejuefangan" unicode="&#xe664;" 
d="M803 442q0 117 -86 200.5t-205 83.5q-107 0 -187 -65t-100 -164q-83 -11 -138 -72.5t-55 -143.5q0 -92 60.5 -161t149.5 -69h570q77 3 128.5 64.5t51.5 140.5q3 74 -53 128.5t-136 57.5zM726 443l-293 -283q-7 -7 -14 0l-166 160q-8 7 0 14l58 56q7 7 14 0l101 -97
l227 220q8 7 15 0l58 -56q7 -7 0 -14z" />
    <glyph glyph-name="c" unicode="&#xe63e;" 
d="M959 20l-365 365l365 366l-82 82l-365 -366l-366 366l-82 -82l366 -366l-366 -365l82 -82l366 365l365 -365z" />
    <glyph glyph-name="cmsguanli" unicode="&#xe63d;" 
d="M990 384q0 -97 -38 -185.5t-102 -152.5t-152.5 -102t-185.5 -38t-185.5 38t-152.5 102t-102 152.5t-38 185.5t38 185.5t102 152.5t152.5 102t185.5 38t185.5 -38t152.5 -102t102 -152.5t38 -185.5zM736 621h-421q-17 0 -29.5 -12t-12.5 -30v-420q0 -16 11 -28t27 -14v0
h261q8 0 14 5l186 187q6 6 6 13v257q0 18 -12.5 30t-29.5 12zM436 243h-63q-10 0 -17.5 7t-7.5 17.5t7.5 18t17.5 7.5h63q10 0 17.5 -7.5t7.5 -18t-7.5 -17.5t-17.5 -7zM682 366h-309q-10 0 -17.5 7.5t-7.5 18t7.5 18t17.5 7.5h309q11 0 18.5 -7.5t7.5 -18t-7.5 -18
t-18.5 -7.5zM682 489h-309q-10 0 -17.5 7.5t-7.5 18t7.5 18t17.5 7.5h309q11 0 18.5 -7.5t7.5 -18t-7.5 -18t-18.5 -7.5z" />
    <glyph glyph-name="ditie" unicode="&#xe633;" 
d="M430 652h154q11 0 18 7t7 17q0 12 -7 19t-18 7h-154q-10 0 -17.5 -7t-7.5 -19q0 -10 7.5 -17t17.5 -7zM304 262q-15 0 -25.5 -10.5t-10.5 -25.5q0 -14 10.5 -24.5t25.5 -10.5q14 0 25 10.5t11 24.5q0 15 -11 25.5t-25 10.5zM278 602h456v-151h-456v151zM745 226
q0 15 -10.5 25.5t-25.5 10.5t-25.5 -10.5t-10.5 -25.5q0 -14 10.5 -24.5t25.5 -10.5t25.5 10.5t10.5 24.5zM506.5 879q-102.5 0 -195 -39.5t-160 -106.5t-107 -160t-39.5 -195t39.5 -195t107 -160t160 -107t195 -40t195 40t160 107t107 160t39.5 195t-39.5 195t-107 160
t-160 106.5t-195 39.5zM715 2l-21 49h-375l-21 -49h-105l107 153q-32 9 -52 35.5t-20 60.5v351q0 21 11 40t26.5 34t32.5 27q16 11 29 17q15 7 26 12q15 6 35.5 11t46.5 8t63 3q39 0 71 -3q31 -4 54 -10q22 -6 40 -14q17 -7 32 -15.5t31 -18.5t29 -23t22 -30q8 -17 8 -38
v-351q0 -35 -20.5 -61t-52.5 -35l108 -153h-105v0zM366 151l-24 -51h328l-23 51h-281z" />
    <glyph glyph-name="nv" unicode="&#xe611;" 
d="M390 230q-3 -1 -9.5 -3t-25 -6.5t-35.5 -7t-38 -1.5t-35.5 6.5t-25 20t-10.5 36.5q0 7 9.5 25t9.5 39q0 2 -1.5 22t-3.5 46t-2 63.5t2.5 76t11 81t21.5 80t36.5 72.5t54.5 60.5t76 40.5t100 15q63 0 112 -23t78.5 -60t49 -87t27 -98.5t10 -101t0 -89t-5 -67t-2.5 -31.5
q0 -25 9.5 -41t9.5 -23q0 -30 -18.5 -46t-45 -17t-52.5 3t-44.5 9.5l-18.5 5.5q-1 -4 -2 -11t4.5 -27.5t19 -39t47.5 -40t84 -35.5q41 -13 73 -28t52.5 -28t35.5 -30t22.5 -27.5t11.5 -27t4.5 -23t0 -20.5t-0.5 -15h-960q1 1 -0.5 5t0.5 13t4 19.5t9 24.5t15.5 28t24.5 29
t35 29t47.5 27.5t62.5 23.5q141 39 164 122q2 10 2 31v0zM390 230z" />
    <glyph glyph-name="adressfilled" unicode="&#xe614;" 
d="M512 891q-103 0 -197 -40t-161.5 -108t-108 -162t-40.5 -197t40.5 -197t108 -161.5t161.5 -108t197 -40.5t197 40.5t162 108t108 161.5t40 197t-40 197t-108 162t-162 108t-197 40zM842.5 53.5q-64.5 -64.5 -148.5 -100.5q-87 -36 -182 -36t-182 36q-84 36 -148.5 100.5
t-100.5 148.5q-36 87 -36 182t36 182q36 84 100.5 148.5t148.5 100.5q87 37 182 37t182 -37q84 -36 148.5 -100.5t100.5 -148.5q37 -87 37 -182t-37 -182q-36 -84 -100.5 -148.5zM512 842q-93 0 -177.5 -36.5t-146 -98t-97.5 -146t-36 -177.5t36 -177.5t97.5 -146t146 -97.5
t177.5 -36t177.5 36t146 97.5t98 146t36.5 177.5t-36.5 177.5t-98 146t-146 98t-177.5 36.5zM597 163l-70 -79q-6 -7 -14 -7h-1q-9 0 -15 7q-10 10 -25.5 27t-51 60t-62.5 82t-49 86t-22 80q0 91 66 156t159 65t159 -65t66 -156q0 -88 -140 -256zM512 519q-42 0 -72 -29
t-30 -71t30 -71.5t72 -29.5t72 29.5t30 71.5t-30 71t-72 29z" />
    <glyph glyph-name="dingzhiwangzhan" unicode="&#xe622;" 
d="M869 803h-714q-37 0 -63 -26t-26 -63v-464q0 -37 26 -63t63 -26h714q37 0 63 26t26 63v464q0 37 -26 63t-63 26zM602 674q10 10 24 10t24 -10l54 -53q10 -11 10 -25t-10 -24l-26 -27l-102 103zM316 623l54 55q11 10 24.5 10t24.5 -10l81 -81l-102 -103l-18 18l55 55
q6 6 0 12.5t-12 -0.5l-55 -54l-21 20l55 55q6 6 0 12.5t-12 0.5l-55 -55l-18 18q-10 10 -10.5 23.5t9.5 23.5zM336 280h-1q-12 -1 -18 7q-7 8 -7 19v0q14 86 21 97l101 -102q-14 -8 -96 -21zM445 314l-102 102l67 66l102 103l51 51l102 -102l5 4l-5 -4v0l-46 -47l-149 -148z
M708 341l-54 -55q-10 -10 -24 -10t-24 11l-24 23l55 55q6 6 0 12.5t-12 -0.5l-55 -54l-26 26l55 54q6 7 0 13t-13 0l-54 -55l-7 7l102 102l81 -81q10 -10 9.5 -24t-9.5 -24zM665 534l5 4zM351 54h36v71h250v-71h36q37 0 63 -26t26 -63h-500q0 37 26 63t63 26v0zM351 54z
M704 621zM331 403zM665 534zM419 678zM708 389z" />
    <glyph glyph-name="man" unicode="&#xe608;" horiz-adv-x="1085" 
d="M1006 -109h-928q-20 0 -34 14t-14 34v6t1.5 17t3.5 24.5t6.5 30.5t10.5 34.5t16 35.5t22 34t29.5 30.5t38.5 24.5q41 20 70.5 24t78.5 24q44 19 75 32.5t39 18.5l9 5l1 94q-4 3 -10.5 10t-20 37t-18.5 69q-16 -4 -23.5 12t-8.5 37q-1 3 -2 16.5t-1.5 23t0 20.5t5.5 16.5
t13 3.5q-11 78 -8 103q5 58 56.5 104t129.5 50q89 -4 134 -48t52 -106q2 -24 -9 -103q8 2 12.5 -3.5t5.5 -16.5t0.5 -20.5t-2 -23t-1.5 -16.5q-1 -21 -9 -37t-23 -11q-6 -40 -18 -69t-22 -38l-9 -10l1 -94q23 -13 122 -54q49 -20 78.5 -25t71.5 -25q35 -18 61.5 -49.5
t38.5 -60.5t19 -62t7.5 -45.5t0.5 -19.5q0 -20 -14 -34t-34 -14z" />
    <glyph glyph-name="iconfontshengji" unicode="&#xe604;" 
d="M535 885q-14 12 -33.5 11t-33.5 -16q-81 -83 -123 -187.5t-40 -216.5q1 -30 2 -49l-93 -113q-11 -14 -11 -32l3 -151q0 -27 24 -39.5t47 1.5l94 56q54 -72 146 -66q7 0 12 1q84 10 130 83l92 -42q25 -11 48 4q3 2 5 5q18 15 17 38l-3 151q0 18 -13 31l-91 94q0 19 -1 55
q-2 112 -48 211t-130 171v0zM554 491q-22 -19 -49.5 -17.5t-45 21.5t-15 47.5t24 46t49 17.5t45 -21.5t15 -48t-23.5 -45.5v0zM598 46l-163 1q-10 0 -15 -8.5t-1 -16.5l80 -139q1 -1 2 -3t3 -4q8 -8 19 4l-4 -3q5 4 7 8l86 136q5 9 0.5 17t-14.5 8v0z" />
    <glyph glyph-name="xuanpei" unicode="&#xe6de;" 
d="M512 832q-91 0 -174 -35.5t-143 -95.5t-95.5 -143t-35.5 -174t35.5 -174t95.5 -143t143 -95.5t174 -35.5t174 35.5t143 95.5t95.5 143t35.5 174t-35.5 174t-95.5 143t-143 95.5t-174 35.5zM512 20q-99 0 -183 48.5t-132.5 132.5t-48.5 183t48.5 183t132.5 132.5t183 48.5
t183 -48.5t132.5 -132.5t48.5 -183t-48.5 -183t-132.5 -132.5t-183 -48.5z" />
    <glyph glyph-name="wu" unicode="&#xe606;" 
d="M512 882q-101 0 -192 -38.5t-157 -104.5t-105 -157.5t-39 -192t39 -192t105 -157.5t157 -105t192 -39t192 39t157 105t105 157.5t39 192t-39 192t-105 157.5t-157 104.5t-192 38.5zM509.5 -21q-112.5 0 -208 55t-150.5 150t-55 207.5t55 208t150.5 150.5t208 55
t207.5 -55t150 -150.5t55 -207.5q2 -111 -53.5 -206.5t-151 -151t-208 -55.5zM768 418q-11 12 -31 12h-450q-20 0 -31 -12q-12 -12 -12.5 -29.5t10.5 -27.5q11 -12 31 -12h454q20 0 31 12q11 10 10.5 27.5t-12.5 29.5z" />
    <glyph glyph-name="shixianliubianxing" unicode="&#xe716;" 
d="M512 867l418 -242v-482l-418 -242l-418 242v482zM512 896l-443 -256v-512l443 -256l443 256v512zM120 610l392 226l392 -226v-452l-392 -226l-392 226v452z" />
  </font>
</defs>
</svg>
